<mxfile host="app.diagrams.net" agent="Mozilla/5.0 (Macintosh; Intel Mac OS X 10_15_7) AppleWebKit/537.36 (KHTML, like Gecko) Chrome/135.0.0.0 Safari/537.36" version="26.2.15">
  <diagram name="Page-1" id="1_dtj_4Pmrg1VrUrIA6u">
    <mxGraphModel dx="1113" dy="689" grid="1" gridSize="10" guides="1" tooltips="1" connect="1" arrows="1" fold="1" page="1" pageScale="1" pageWidth="827" pageHeight="1169" math="0" shadow="0">
      <root>
        <mxCell id="0" />
        <mxCell id="1" parent="0" />
        <mxCell id="tVDi1PiD70UsJFbZUKC4-13" value="" style="group" vertex="1" connectable="0" parent="1">
          <mxGeometry x="50" y="160" width="270" height="120" as="geometry" />
        </mxCell>
        <mxCell id="tVDi1PiD70UsJFbZUKC4-7" value="" style="endArrow=oval;html=1;rounded=0;startArrow=oval;startFill=1;endFill=1;" edge="1" parent="tVDi1PiD70UsJFbZUKC4-13">
          <mxGeometry width="50" height="50" relative="1" as="geometry">
            <mxPoint x="160" y="70" as="sourcePoint" />
            <mxPoint x="160" as="targetPoint" />
          </mxGeometry>
        </mxCell>
        <mxCell id="tVDi1PiD70UsJFbZUKC4-8" value="" style="endArrow=oval;html=1;rounded=0;endFill=1;" edge="1" parent="tVDi1PiD70UsJFbZUKC4-13">
          <mxGeometry width="50" height="50" relative="1" as="geometry">
            <mxPoint x="160" y="70" as="sourcePoint" />
            <mxPoint x="240" y="70" as="targetPoint" />
          </mxGeometry>
        </mxCell>
        <mxCell id="tVDi1PiD70UsJFbZUKC4-9" value="" style="endArrow=oval;html=1;rounded=0;endFill=1;" edge="1" parent="tVDi1PiD70UsJFbZUKC4-13">
          <mxGeometry width="50" height="50" relative="1" as="geometry">
            <mxPoint x="240" y="70" as="sourcePoint" />
            <mxPoint x="240" as="targetPoint" />
          </mxGeometry>
        </mxCell>
        <mxCell id="tVDi1PiD70UsJFbZUKC4-10" value="" style="endArrow=none;html=1;rounded=0;" edge="1" parent="tVDi1PiD70UsJFbZUKC4-13">
          <mxGeometry width="50" height="50" relative="1" as="geometry">
            <mxPoint x="160" as="sourcePoint" />
            <mxPoint x="240" as="targetPoint" />
          </mxGeometry>
        </mxCell>
        <mxCell id="tVDi1PiD70UsJFbZUKC4-11" value="" style="endArrow=oval;html=1;rounded=0;startArrow=none;startFill=0;endFill=1;" edge="1" parent="tVDi1PiD70UsJFbZUKC4-13">
          <mxGeometry width="50" height="50" relative="1" as="geometry">
            <mxPoint x="160" y="70" as="sourcePoint" />
            <mxPoint x="80" y="70" as="targetPoint" />
          </mxGeometry>
        </mxCell>
        <mxCell id="tVDi1PiD70UsJFbZUKC4-12" value="" style="endArrow=oval;html=1;rounded=0;startArrow=none;startFill=0;endFill=1;" edge="1" parent="tVDi1PiD70UsJFbZUKC4-13">
          <mxGeometry width="50" height="50" relative="1" as="geometry">
            <mxPoint x="80" y="70" as="sourcePoint" />
            <mxPoint y="70" as="targetPoint" />
          </mxGeometry>
        </mxCell>
        <mxCell id="tVDi1PiD70UsJFbZUKC4-45" value="" style="rounded=1;whiteSpace=wrap;html=1;fillColor=none;" vertex="1" parent="tVDi1PiD70UsJFbZUKC4-13">
          <mxGeometry x="-30" y="-40" width="300" height="150" as="geometry" />
        </mxCell>
        <mxCell id="tVDi1PiD70UsJFbZUKC4-14" value="" style="group" vertex="1" connectable="0" parent="1">
          <mxGeometry x="360" y="108" width="240" height="70" as="geometry" />
        </mxCell>
        <mxCell id="tVDi1PiD70UsJFbZUKC4-15" value="" style="endArrow=oval;html=1;rounded=0;startArrow=oval;startFill=1;endFill=1;" edge="1" parent="tVDi1PiD70UsJFbZUKC4-14">
          <mxGeometry width="50" height="50" relative="1" as="geometry">
            <mxPoint x="160" y="70" as="sourcePoint" />
            <mxPoint x="160" as="targetPoint" />
          </mxGeometry>
        </mxCell>
        <mxCell id="tVDi1PiD70UsJFbZUKC4-16" value="" style="endArrow=oval;html=1;rounded=0;endFill=1;" edge="1" parent="tVDi1PiD70UsJFbZUKC4-14">
          <mxGeometry width="50" height="50" relative="1" as="geometry">
            <mxPoint x="160" y="70" as="sourcePoint" />
            <mxPoint x="240" y="70" as="targetPoint" />
          </mxGeometry>
        </mxCell>
        <mxCell id="tVDi1PiD70UsJFbZUKC4-17" value="" style="endArrow=oval;html=1;rounded=0;endFill=1;" edge="1" parent="tVDi1PiD70UsJFbZUKC4-14">
          <mxGeometry width="50" height="50" relative="1" as="geometry">
            <mxPoint x="240" y="70" as="sourcePoint" />
            <mxPoint x="240" as="targetPoint" />
          </mxGeometry>
        </mxCell>
        <mxCell id="tVDi1PiD70UsJFbZUKC4-18" value="" style="endArrow=none;html=1;rounded=0;dashed=1;" edge="1" parent="tVDi1PiD70UsJFbZUKC4-14">
          <mxGeometry width="50" height="50" relative="1" as="geometry">
            <mxPoint x="160" as="sourcePoint" />
            <mxPoint x="240" as="targetPoint" />
          </mxGeometry>
        </mxCell>
        <mxCell id="tVDi1PiD70UsJFbZUKC4-19" value="" style="endArrow=oval;html=1;rounded=0;startArrow=none;startFill=0;endFill=1;" edge="1" parent="tVDi1PiD70UsJFbZUKC4-14">
          <mxGeometry width="50" height="50" relative="1" as="geometry">
            <mxPoint x="160" y="70" as="sourcePoint" />
            <mxPoint x="80" y="70" as="targetPoint" />
          </mxGeometry>
        </mxCell>
        <mxCell id="tVDi1PiD70UsJFbZUKC4-20" value="" style="endArrow=oval;html=1;rounded=0;startArrow=none;startFill=0;endFill=1;" edge="1" parent="tVDi1PiD70UsJFbZUKC4-14">
          <mxGeometry width="50" height="50" relative="1" as="geometry">
            <mxPoint x="80" y="70" as="sourcePoint" />
            <mxPoint y="70" as="targetPoint" />
          </mxGeometry>
        </mxCell>
        <mxCell id="tVDi1PiD70UsJFbZUKC4-21" value="" style="group" vertex="1" connectable="0" parent="1">
          <mxGeometry x="360" y="208" width="240" height="70" as="geometry" />
        </mxCell>
        <mxCell id="tVDi1PiD70UsJFbZUKC4-22" value="" style="endArrow=oval;html=1;rounded=0;startArrow=oval;startFill=1;endFill=1;" edge="1" parent="tVDi1PiD70UsJFbZUKC4-21">
          <mxGeometry width="50" height="50" relative="1" as="geometry">
            <mxPoint x="160" y="70" as="sourcePoint" />
            <mxPoint x="160" as="targetPoint" />
          </mxGeometry>
        </mxCell>
        <mxCell id="tVDi1PiD70UsJFbZUKC4-23" value="" style="endArrow=oval;html=1;rounded=0;endFill=1;dashed=1;" edge="1" parent="tVDi1PiD70UsJFbZUKC4-21">
          <mxGeometry width="50" height="50" relative="1" as="geometry">
            <mxPoint x="160" y="70" as="sourcePoint" />
            <mxPoint x="240" y="70" as="targetPoint" />
          </mxGeometry>
        </mxCell>
        <mxCell id="tVDi1PiD70UsJFbZUKC4-24" value="" style="endArrow=oval;html=1;rounded=0;endFill=1;" edge="1" parent="tVDi1PiD70UsJFbZUKC4-21">
          <mxGeometry width="50" height="50" relative="1" as="geometry">
            <mxPoint x="240" y="70" as="sourcePoint" />
            <mxPoint x="240" as="targetPoint" />
          </mxGeometry>
        </mxCell>
        <mxCell id="tVDi1PiD70UsJFbZUKC4-25" value="" style="endArrow=none;html=1;rounded=0;" edge="1" parent="tVDi1PiD70UsJFbZUKC4-21">
          <mxGeometry width="50" height="50" relative="1" as="geometry">
            <mxPoint x="160" as="sourcePoint" />
            <mxPoint x="240" as="targetPoint" />
          </mxGeometry>
        </mxCell>
        <mxCell id="tVDi1PiD70UsJFbZUKC4-26" value="" style="endArrow=oval;html=1;rounded=0;startArrow=none;startFill=0;endFill=1;" edge="1" parent="tVDi1PiD70UsJFbZUKC4-21">
          <mxGeometry width="50" height="50" relative="1" as="geometry">
            <mxPoint x="160" y="70" as="sourcePoint" />
            <mxPoint x="80" y="70" as="targetPoint" />
          </mxGeometry>
        </mxCell>
        <mxCell id="tVDi1PiD70UsJFbZUKC4-27" value="" style="endArrow=oval;html=1;rounded=0;startArrow=none;startFill=0;endFill=1;" edge="1" parent="tVDi1PiD70UsJFbZUKC4-21">
          <mxGeometry width="50" height="50" relative="1" as="geometry">
            <mxPoint x="80" y="70" as="sourcePoint" />
            <mxPoint y="70" as="targetPoint" />
          </mxGeometry>
        </mxCell>
        <mxCell id="tVDi1PiD70UsJFbZUKC4-29" value="" style="endArrow=oval;html=1;rounded=0;startArrow=oval;startFill=1;endFill=1;dashed=1;" edge="1" parent="1">
          <mxGeometry width="50" height="50" relative="1" as="geometry">
            <mxPoint x="812" y="178" as="sourcePoint" />
            <mxPoint x="812" y="108" as="targetPoint" />
          </mxGeometry>
        </mxCell>
        <mxCell id="tVDi1PiD70UsJFbZUKC4-30" value="" style="endArrow=oval;html=1;rounded=0;endFill=1;" edge="1" parent="1">
          <mxGeometry width="50" height="50" relative="1" as="geometry">
            <mxPoint x="812" y="178" as="sourcePoint" />
            <mxPoint x="892" y="178" as="targetPoint" />
          </mxGeometry>
        </mxCell>
        <mxCell id="tVDi1PiD70UsJFbZUKC4-31" value="" style="endArrow=oval;html=1;rounded=0;endFill=1;" edge="1" parent="1">
          <mxGeometry width="50" height="50" relative="1" as="geometry">
            <mxPoint x="892" y="178" as="sourcePoint" />
            <mxPoint x="892" y="108" as="targetPoint" />
          </mxGeometry>
        </mxCell>
        <mxCell id="tVDi1PiD70UsJFbZUKC4-32" value="" style="endArrow=none;html=1;rounded=0;" edge="1" parent="1">
          <mxGeometry width="50" height="50" relative="1" as="geometry">
            <mxPoint x="812" y="108" as="sourcePoint" />
            <mxPoint x="892" y="108" as="targetPoint" />
          </mxGeometry>
        </mxCell>
        <mxCell id="tVDi1PiD70UsJFbZUKC4-33" value="" style="endArrow=oval;html=1;rounded=0;startArrow=none;startFill=0;endFill=1;" edge="1" parent="1">
          <mxGeometry width="50" height="50" relative="1" as="geometry">
            <mxPoint x="812" y="178" as="sourcePoint" />
            <mxPoint x="732" y="178" as="targetPoint" />
          </mxGeometry>
        </mxCell>
        <mxCell id="tVDi1PiD70UsJFbZUKC4-34" value="" style="endArrow=oval;html=1;rounded=0;startArrow=none;startFill=0;endFill=1;" edge="1" parent="1">
          <mxGeometry width="50" height="50" relative="1" as="geometry">
            <mxPoint x="732" y="178" as="sourcePoint" />
            <mxPoint x="652" y="178" as="targetPoint" />
          </mxGeometry>
        </mxCell>
        <mxCell id="tVDi1PiD70UsJFbZUKC4-36" value="" style="endArrow=oval;html=1;rounded=0;startArrow=oval;startFill=1;endFill=1;" edge="1" parent="1">
          <mxGeometry width="50" height="50" relative="1" as="geometry">
            <mxPoint x="812" y="278" as="sourcePoint" />
            <mxPoint x="812" y="208" as="targetPoint" />
          </mxGeometry>
        </mxCell>
        <mxCell id="tVDi1PiD70UsJFbZUKC4-37" value="" style="endArrow=oval;html=1;rounded=0;endFill=1;" edge="1" parent="1">
          <mxGeometry width="50" height="50" relative="1" as="geometry">
            <mxPoint x="812" y="278" as="sourcePoint" />
            <mxPoint x="892" y="278" as="targetPoint" />
          </mxGeometry>
        </mxCell>
        <mxCell id="tVDi1PiD70UsJFbZUKC4-38" value="" style="endArrow=oval;html=1;rounded=0;endFill=1;dashed=1;" edge="1" parent="1">
          <mxGeometry width="50" height="50" relative="1" as="geometry">
            <mxPoint x="892" y="278" as="sourcePoint" />
            <mxPoint x="892" y="208" as="targetPoint" />
          </mxGeometry>
        </mxCell>
        <mxCell id="tVDi1PiD70UsJFbZUKC4-39" value="" style="endArrow=none;html=1;rounded=0;" edge="1" parent="1">
          <mxGeometry width="50" height="50" relative="1" as="geometry">
            <mxPoint x="812" y="208" as="sourcePoint" />
            <mxPoint x="892" y="208" as="targetPoint" />
          </mxGeometry>
        </mxCell>
        <mxCell id="tVDi1PiD70UsJFbZUKC4-40" value="" style="endArrow=oval;html=1;rounded=0;startArrow=none;startFill=0;endFill=1;" edge="1" parent="1">
          <mxGeometry width="50" height="50" relative="1" as="geometry">
            <mxPoint x="812" y="278" as="sourcePoint" />
            <mxPoint x="732" y="278" as="targetPoint" />
          </mxGeometry>
        </mxCell>
        <mxCell id="tVDi1PiD70UsJFbZUKC4-41" value="" style="endArrow=oval;html=1;rounded=0;startArrow=none;startFill=0;endFill=1;" edge="1" parent="1">
          <mxGeometry width="50" height="50" relative="1" as="geometry">
            <mxPoint x="732" y="278" as="sourcePoint" />
            <mxPoint x="652" y="278" as="targetPoint" />
          </mxGeometry>
        </mxCell>
      </root>
    </mxGraphModel>
  </diagram>
</mxfile>
